# xmcd CD database file
#
# Track frame offsets:
#	187
#	18149
#	41062
#	59062
#
# Disc length: 1088 seconds
#
# Revision: 0
# Processed by: cddbd v1.5PL3 Copyright (c) Steve Scherf et al.
# Submitted via: CDex 1.51
#
DISCID=2f043e04
DTITLE=三重野瞳 - Dollたちの独立記念日
DYEAR=1995
DGENRE=JPop
TTITLE0=Dollたちの独立記念日
TTITLE1=夢にStay
TTITLE2=Dollたちの独立記念日(オリジナルカラオケ)
TTITLE3=夢にStay
EXTD=YEAR: 1995
EXTT0=
EXTT1=
EXTT2=
EXTT3=
PLAYORDER=
